<mxfile host="app.diagrams.net" agent="Mozilla/5.0 (Windows NT 10.0; Win64; x64) AppleWebKit/537.36 (KHTML, like Gecko) Chrome/135.0.0.0 Safari/537.36 Edg/135.0.0.0" version="26.2.15">
  <diagram name="Page-1" id="dTFzSpqEktPpAgZfvwsA">
    <mxGraphModel dx="2147" dy="1880" grid="1" gridSize="10" guides="1" tooltips="1" connect="1" arrows="1" fold="1" page="1" pageScale="1" pageWidth="850" pageHeight="1100" math="0" shadow="0">
      <root>
        <mxCell id="0" />
        <mxCell id="1" parent="0" />
        <mxCell id="oYiOcZ5IGJ-oy7S69wUD-25" value="" style="endArrow=classic;html=1;rounded=0;exitX=0;exitY=0.5;exitDx=0;exitDy=0;entryX=1;entryY=0.5;entryDx=0;entryDy=0;" edge="1" parent="1" source="oYiOcZ5IGJ-oy7S69wUD-1" target="oYiOcZ5IGJ-oy7S69wUD-24">
          <mxGeometry width="50" height="50" relative="1" as="geometry">
            <mxPoint x="480" y="250" as="sourcePoint" />
            <mxPoint x="530" y="200" as="targetPoint" />
          </mxGeometry>
        </mxCell>
        <mxCell id="oYiOcZ5IGJ-oy7S69wUD-27" value="" style="endArrow=classic;html=1;rounded=0;entryX=0;entryY=0.5;entryDx=0;entryDy=0;" edge="1" parent="1" target="oYiOcZ5IGJ-oy7S69wUD-26">
          <mxGeometry width="50" height="50" relative="1" as="geometry">
            <mxPoint x="410" y="60" as="sourcePoint" />
            <mxPoint x="530" y="200" as="targetPoint" />
          </mxGeometry>
        </mxCell>
        <mxCell id="oYiOcZ5IGJ-oy7S69wUD-41" value="" style="endArrow=classic;html=1;rounded=0;entryX=1;entryY=0.5;entryDx=0;entryDy=0;" edge="1" parent="1" target="oYiOcZ5IGJ-oy7S69wUD-39">
          <mxGeometry width="50" height="50" relative="1" as="geometry">
            <mxPoint x="290" y="60" as="sourcePoint" />
            <mxPoint x="530" y="20" as="targetPoint" />
          </mxGeometry>
        </mxCell>
        <mxCell id="oYiOcZ5IGJ-oy7S69wUD-42" value="" style="endArrow=classic;html=1;rounded=0;entryX=0;entryY=0.5;entryDx=0;entryDy=0;exitX=1;exitY=0.5;exitDx=0;exitDy=0;" edge="1" parent="1" source="oYiOcZ5IGJ-oy7S69wUD-1" target="oYiOcZ5IGJ-oy7S69wUD-40">
          <mxGeometry width="50" height="50" relative="1" as="geometry">
            <mxPoint x="410" y="60" as="sourcePoint" />
            <mxPoint x="530" y="20" as="targetPoint" />
          </mxGeometry>
        </mxCell>
        <mxCell id="oYiOcZ5IGJ-oy7S69wUD-38" value="" style="endArrow=classic;html=1;rounded=0;exitX=0;exitY=0.5;exitDx=0;exitDy=0;entryX=1;entryY=0.5;entryDx=0;entryDy=0;" edge="1" parent="1" source="oYiOcZ5IGJ-oy7S69wUD-1" target="oYiOcZ5IGJ-oy7S69wUD-35">
          <mxGeometry width="50" height="50" relative="1" as="geometry">
            <mxPoint x="480" y="70" as="sourcePoint" />
            <mxPoint x="530" y="20" as="targetPoint" />
          </mxGeometry>
        </mxCell>
        <mxCell id="oYiOcZ5IGJ-oy7S69wUD-37" value="" style="endArrow=classic;html=1;rounded=0;entryX=0;entryY=0.5;entryDx=0;entryDy=0;" edge="1" parent="1" target="oYiOcZ5IGJ-oy7S69wUD-36">
          <mxGeometry width="50" height="50" relative="1" as="geometry">
            <mxPoint x="410" y="60" as="sourcePoint" />
            <mxPoint x="530" y="20" as="targetPoint" />
          </mxGeometry>
        </mxCell>
        <mxCell id="oYiOcZ5IGJ-oy7S69wUD-11" style="edgeStyle=orthogonalEdgeStyle;rounded=0;orthogonalLoop=1;jettySize=auto;html=1;exitX=0.5;exitY=0;exitDx=0;exitDy=0;entryX=0.5;entryY=1;entryDx=0;entryDy=0;" edge="1" parent="1" source="oYiOcZ5IGJ-oy7S69wUD-1" target="oYiOcZ5IGJ-oy7S69wUD-7">
          <mxGeometry relative="1" as="geometry" />
        </mxCell>
        <mxCell id="oYiOcZ5IGJ-oy7S69wUD-16" style="edgeStyle=orthogonalEdgeStyle;rounded=0;orthogonalLoop=1;jettySize=auto;html=1;" edge="1" parent="1" source="oYiOcZ5IGJ-oy7S69wUD-1" target="oYiOcZ5IGJ-oy7S69wUD-14">
          <mxGeometry relative="1" as="geometry" />
        </mxCell>
        <mxCell id="oYiOcZ5IGJ-oy7S69wUD-1" value="system" style="rounded=0;whiteSpace=wrap;html=1;" vertex="1" parent="1">
          <mxGeometry x="290" y="30" width="120" height="60" as="geometry" />
        </mxCell>
        <mxCell id="oYiOcZ5IGJ-oy7S69wUD-3" style="edgeStyle=orthogonalEdgeStyle;rounded=0;orthogonalLoop=1;jettySize=auto;html=1;entryX=0.5;entryY=1;entryDx=0;entryDy=0;" edge="1" parent="1" source="oYiOcZ5IGJ-oy7S69wUD-2" target="oYiOcZ5IGJ-oy7S69wUD-1">
          <mxGeometry relative="1" as="geometry" />
        </mxCell>
        <mxCell id="oYiOcZ5IGJ-oy7S69wUD-2" value="WEB" style="rounded=0;whiteSpace=wrap;html=1;" vertex="1" parent="1">
          <mxGeometry x="290" y="140" width="120" height="60" as="geometry" />
        </mxCell>
        <mxCell id="oYiOcZ5IGJ-oy7S69wUD-4" value="cache" style="rounded=0;whiteSpace=wrap;html=1;" vertex="1" parent="1">
          <mxGeometry x="290" y="400" width="120" height="60" as="geometry" />
        </mxCell>
        <mxCell id="oYiOcZ5IGJ-oy7S69wUD-6" value="system-business-hr" style="rounded=0;whiteSpace=wrap;html=1;" vertex="1" parent="1">
          <mxGeometry x="480" y="-80" width="120" height="60" as="geometry" />
        </mxCell>
        <mxCell id="oYiOcZ5IGJ-oy7S69wUD-7" value="system-business-permission" style="rounded=0;whiteSpace=wrap;html=1;" vertex="1" parent="1">
          <mxGeometry x="290" y="-80" width="120" height="60" as="geometry" />
        </mxCell>
        <mxCell id="oYiOcZ5IGJ-oy7S69wUD-8" value="system-business-portal" style="rounded=0;whiteSpace=wrap;html=1;" vertex="1" parent="1">
          <mxGeometry x="100" y="-80" width="120" height="60" as="geometry" />
        </mxCell>
        <mxCell id="oYiOcZ5IGJ-oy7S69wUD-10" value="" style="endArrow=classic;html=1;rounded=0;entryX=0.5;entryY=1;entryDx=0;entryDy=0;" edge="1" parent="1" target="oYiOcZ5IGJ-oy7S69wUD-8">
          <mxGeometry width="50" height="50" relative="1" as="geometry">
            <mxPoint x="290" y="60" as="sourcePoint" />
            <mxPoint x="540" y="140" as="targetPoint" />
          </mxGeometry>
        </mxCell>
        <mxCell id="oYiOcZ5IGJ-oy7S69wUD-13" value="" style="endArrow=classic;html=1;rounded=0;exitX=1;exitY=0.5;exitDx=0;exitDy=0;entryX=0.5;entryY=1;entryDx=0;entryDy=0;" edge="1" parent="1" source="oYiOcZ5IGJ-oy7S69wUD-1" target="oYiOcZ5IGJ-oy7S69wUD-6">
          <mxGeometry width="50" height="50" relative="1" as="geometry">
            <mxPoint x="490" y="190" as="sourcePoint" />
            <mxPoint x="540" y="140" as="targetPoint" />
          </mxGeometry>
        </mxCell>
        <mxCell id="oYiOcZ5IGJ-oy7S69wUD-14" value="cache-sdk-memory" style="rounded=0;whiteSpace=wrap;html=1;" vertex="1" parent="1">
          <mxGeometry x="660" y="30" width="120" height="60" as="geometry" />
        </mxCell>
        <mxCell id="oYiOcZ5IGJ-oy7S69wUD-17" value="cache-sdk-redis" style="rounded=0;whiteSpace=wrap;html=1;" vertex="1" parent="1">
          <mxGeometry x="660" y="140" width="120" height="60" as="geometry" />
        </mxCell>
        <mxCell id="oYiOcZ5IGJ-oy7S69wUD-18" value="" style="endArrow=classic;html=1;rounded=0;exitX=0.5;exitY=1;exitDx=0;exitDy=0;entryX=0.5;entryY=0;entryDx=0;entryDy=0;" edge="1" parent="1" source="oYiOcZ5IGJ-oy7S69wUD-2" target="oYiOcZ5IGJ-oy7S69wUD-4">
          <mxGeometry width="50" height="50" relative="1" as="geometry">
            <mxPoint x="480" y="250" as="sourcePoint" />
            <mxPoint x="330" y="290" as="targetPoint" />
          </mxGeometry>
        </mxCell>
        <mxCell id="oYiOcZ5IGJ-oy7S69wUD-19" value="" style="endArrow=classic;html=1;rounded=0;exitX=1;exitY=0.5;exitDx=0;exitDy=0;entryX=0;entryY=0.5;entryDx=0;entryDy=0;" edge="1" parent="1" source="oYiOcZ5IGJ-oy7S69wUD-1" target="oYiOcZ5IGJ-oy7S69wUD-17">
          <mxGeometry width="50" height="50" relative="1" as="geometry">
            <mxPoint x="480" y="250" as="sourcePoint" />
            <mxPoint x="530" y="200" as="targetPoint" />
          </mxGeometry>
        </mxCell>
        <mxCell id="oYiOcZ5IGJ-oy7S69wUD-20" value="config" style="rounded=0;whiteSpace=wrap;html=1;" vertex="1" parent="1">
          <mxGeometry x="-80" y="140" width="120" height="60" as="geometry" />
        </mxCell>
        <mxCell id="oYiOcZ5IGJ-oy7S69wUD-21" value="" style="endArrow=classic;html=1;rounded=0;exitX=0;exitY=0.5;exitDx=0;exitDy=0;entryX=1;entryY=0.5;entryDx=0;entryDy=0;" edge="1" parent="1" source="oYiOcZ5IGJ-oy7S69wUD-1" target="oYiOcZ5IGJ-oy7S69wUD-20">
          <mxGeometry width="50" height="50" relative="1" as="geometry">
            <mxPoint x="480" y="250" as="sourcePoint" />
            <mxPoint x="530" y="200" as="targetPoint" />
          </mxGeometry>
        </mxCell>
        <mxCell id="oYiOcZ5IGJ-oy7S69wUD-22" value="auth" style="rounded=0;whiteSpace=wrap;html=1;" vertex="1" parent="1">
          <mxGeometry x="-80" y="30" width="120" height="60" as="geometry" />
        </mxCell>
        <mxCell id="oYiOcZ5IGJ-oy7S69wUD-23" value="" style="endArrow=classic;html=1;rounded=0;exitX=0;exitY=0.5;exitDx=0;exitDy=0;entryX=1;entryY=0.5;entryDx=0;entryDy=0;" edge="1" parent="1" source="oYiOcZ5IGJ-oy7S69wUD-1" target="oYiOcZ5IGJ-oy7S69wUD-22">
          <mxGeometry width="50" height="50" relative="1" as="geometry">
            <mxPoint x="480" y="250" as="sourcePoint" />
            <mxPoint x="530" y="200" as="targetPoint" />
          </mxGeometry>
        </mxCell>
        <mxCell id="oYiOcZ5IGJ-oy7S69wUD-24" value="security" style="rounded=0;whiteSpace=wrap;html=1;" vertex="1" parent="1">
          <mxGeometry x="-80" y="-80" width="120" height="60" as="geometry" />
        </mxCell>
        <mxCell id="oYiOcZ5IGJ-oy7S69wUD-26" value="db" style="rounded=0;whiteSpace=wrap;html=1;" vertex="1" parent="1">
          <mxGeometry x="660" y="-80" width="120" height="60" as="geometry" />
        </mxCell>
        <mxCell id="oYiOcZ5IGJ-oy7S69wUD-28" value="file" style="rounded=0;whiteSpace=wrap;html=1;" vertex="1" parent="1">
          <mxGeometry x="100" y="-370" width="120" height="60" as="geometry" />
        </mxCell>
        <mxCell id="oYiOcZ5IGJ-oy7S69wUD-29" value="" style="endArrow=classic;html=1;rounded=0;exitX=0;exitY=0.5;exitDx=0;exitDy=0;entryX=0.5;entryY=1;entryDx=0;entryDy=0;" edge="1" parent="1" source="oYiOcZ5IGJ-oy7S69wUD-1" target="oYiOcZ5IGJ-oy7S69wUD-28">
          <mxGeometry width="50" height="50" relative="1" as="geometry">
            <mxPoint x="480" y="-130" as="sourcePoint" />
            <mxPoint x="530" y="-180" as="targetPoint" />
          </mxGeometry>
        </mxCell>
        <mxCell id="oYiOcZ5IGJ-oy7S69wUD-30" value="scanner" style="rounded=0;whiteSpace=wrap;html=1;" vertex="1" parent="1">
          <mxGeometry x="480" y="-370" width="120" height="60" as="geometry" />
        </mxCell>
        <mxCell id="oYiOcZ5IGJ-oy7S69wUD-31" value="" style="endArrow=classic;html=1;rounded=0;exitX=1;exitY=0.5;exitDx=0;exitDy=0;entryX=0.5;entryY=1;entryDx=0;entryDy=0;" edge="1" parent="1" source="oYiOcZ5IGJ-oy7S69wUD-1" target="oYiOcZ5IGJ-oy7S69wUD-30">
          <mxGeometry width="50" height="50" relative="1" as="geometry">
            <mxPoint x="480" y="-130" as="sourcePoint" />
            <mxPoint x="530" y="-180" as="targetPoint" />
          </mxGeometry>
        </mxCell>
        <mxCell id="oYiOcZ5IGJ-oy7S69wUD-32" value="dict" style="rounded=0;whiteSpace=wrap;html=1;" vertex="1" parent="1">
          <mxGeometry x="100" y="210" width="120" height="60" as="geometry" />
        </mxCell>
        <mxCell id="oYiOcZ5IGJ-oy7S69wUD-33" value="" style="endArrow=classic;html=1;rounded=0;entryX=0.5;entryY=0;entryDx=0;entryDy=0;exitX=0;exitY=0.5;exitDx=0;exitDy=0;" edge="1" parent="1" source="oYiOcZ5IGJ-oy7S69wUD-1" target="oYiOcZ5IGJ-oy7S69wUD-32">
          <mxGeometry width="50" height="50" relative="1" as="geometry">
            <mxPoint x="290" y="90" as="sourcePoint" />
            <mxPoint x="530" y="10" as="targetPoint" />
          </mxGeometry>
        </mxCell>
        <mxCell id="oYiOcZ5IGJ-oy7S69wUD-34" value="log" style="rounded=0;whiteSpace=wrap;html=1;" vertex="1" parent="1">
          <mxGeometry x="480" y="210" width="120" height="60" as="geometry" />
        </mxCell>
        <mxCell id="oYiOcZ5IGJ-oy7S69wUD-35" value="timer" style="rounded=0;whiteSpace=wrap;html=1;" vertex="1" parent="1">
          <mxGeometry x="-80" y="-190" width="120" height="60" as="geometry" />
        </mxCell>
        <mxCell id="oYiOcZ5IGJ-oy7S69wUD-36" value="wrapper" style="rounded=0;whiteSpace=wrap;html=1;" vertex="1" parent="1">
          <mxGeometry x="660" y="-190" width="120" height="60" as="geometry" />
        </mxCell>
        <mxCell id="oYiOcZ5IGJ-oy7S69wUD-39" value="moniter" style="rounded=0;whiteSpace=wrap;html=1;" vertex="1" parent="1">
          <mxGeometry x="-80" y="250" width="120" height="60" as="geometry" />
        </mxCell>
        <mxCell id="oYiOcZ5IGJ-oy7S69wUD-40" value="stat" style="rounded=0;whiteSpace=wrap;html=1;" vertex="1" parent="1">
          <mxGeometry x="660" y="250" width="120" height="60" as="geometry" />
        </mxCell>
        <mxCell id="oYiOcZ5IGJ-oy7S69wUD-43" value="" style="endArrow=classic;html=1;rounded=0;exitX=1;exitY=0.5;exitDx=0;exitDy=0;entryX=0.5;entryY=0;entryDx=0;entryDy=0;" edge="1" parent="1" source="oYiOcZ5IGJ-oy7S69wUD-1" target="oYiOcZ5IGJ-oy7S69wUD-34">
          <mxGeometry width="50" height="50" relative="1" as="geometry">
            <mxPoint x="480" y="70" as="sourcePoint" />
            <mxPoint x="530" y="20" as="targetPoint" />
          </mxGeometry>
        </mxCell>
      </root>
    </mxGraphModel>
  </diagram>
</mxfile>
